<?xml version="1.0" ?><svg id="Layer_1" style="enable-background:new 0 0 100 100;" version="1.1" viewBox="0 0 100 100" xml:space="preserve" xmlns="http://www.w3.org/2000/svg" xmlns:xlink="http://www.w3.org/1999/xlink"><path d="M82,35.5H12c-1.104,0-2,0.896-2,2v25c0,1.104,0.896,2,2,2h70c1.104,0,2-0.896,2-2v-25C84,36.396,83.104,35.5,82,35.5z   M14,39.5h20.452l19.622,21H14V39.5z M80,60.5H59.548l-19.622-21H80V60.5z"/><path d="M95,35.448h-4V30.5c0-1.104-0.896-2-2-2H5c-1.104,0-2,0.896-2,2v39c0,1.104,0.896,2,2,2h84c1.104,0,2-0.896,2-2v-4.948h4  c1.104,0,2-0.896,2-2V37.448C97,36.343,96.104,35.448,95,35.448z M87,67.5H7v-35h80v4.948v25.104V67.5z M93,60.552h-2V39.448h2  V60.552z"/></svg>